<svg width="331" height="331" viewBox="0 0 331 331" fill="none" xmlns="http://www.w3.org/2000/svg">
<g clip-path="url(#clip0_104_8)">
<path fill-rule="evenodd" clip-rule="evenodd" d="M135.081 99.4891H105.946V160.771H135.081C139.243 160.885 143.386 160.177 147.274 158.689C151.163 157.2 154.719 154.961 157.741 152.097C160.763 149.234 163.191 145.804 164.887 142.002C166.582 138.2 167.511 134.102 167.622 129.941C167.301 121.604 163.704 113.73 157.611 108.029C151.519 102.328 143.423 99.2588 135.081 99.4891Z" fill="#0E3EA2"/>
<path fill-rule="evenodd" clip-rule="evenodd" d="M203.851 168.148H174.716V229.809H203.851C208.104 230.142 212.38 229.592 216.41 228.194C220.44 226.796 224.137 224.579 227.269 221.684C230.401 218.788 232.9 215.277 234.609 211.369C236.319 207.462 237.201 203.243 237.201 198.978C237.201 194.714 236.319 190.495 234.609 186.587C232.9 182.68 230.401 179.168 227.269 176.273C224.137 173.377 220.44 171.161 216.41 169.763C212.38 168.365 208.104 167.815 203.851 168.148Z" fill="#7D7D7D"/>
<path fill-rule="evenodd" clip-rule="evenodd" d="M203.851 99.4891H174.811V160.771H203.946C212.288 161.002 220.384 157.933 226.476 152.232C232.569 146.53 236.166 138.656 236.486 130.319C236.376 126.15 235.444 122.044 233.743 118.236C232.041 114.428 229.605 110.993 226.573 108.129C223.541 105.264 219.973 103.027 216.074 101.544C212.175 100.061 208.021 99.3631 203.851 99.4891Z" fill="#7D7D7D"/>
<path fill-rule="evenodd" clip-rule="evenodd" d="M135.081 168.148H105.946V229.809H135.081C139.334 230.142 143.61 229.592 147.64 228.194C151.67 226.796 155.367 224.579 158.499 221.684C161.631 218.788 164.13 215.277 165.839 211.369C167.548 207.462 168.431 203.243 168.431 198.978C168.431 194.714 167.548 190.495 165.839 186.587C164.13 182.68 161.631 179.168 158.499 176.273C155.367 173.377 151.67 171.161 147.64 169.763C143.61 168.365 139.334 167.815 135.081 168.148Z" fill="#0E3EA2"/>
<path d="M165.541 49.1771C142.532 49.1958 120.046 56.034 100.925 68.827C81.8036 81.6201 66.9052 99.7938 58.1134 121.051C49.3215 142.308 47.0309 165.693 51.531 188.251C56.0311 210.81 67.12 231.527 83.3957 247.786C99.6715 264.045 120.404 275.114 142.971 279.595C165.538 284.075 188.928 281.766 210.183 272.959C231.438 264.152 249.604 249.243 262.384 230.116C275.165 210.989 281.986 188.502 281.986 165.5C281.961 134.641 269.682 105.054 247.847 83.2416C226.012 61.4295 196.408 49.1771 165.541 49.1771ZM165.541 0C198.281 0 230.287 9.7064 257.51 27.8918C284.733 46.0772 305.951 71.9247 318.48 102.166C331.009 132.407 334.288 165.684 327.9 197.787C321.513 229.891 305.747 259.381 282.595 282.526C259.444 305.672 229.948 321.434 197.836 327.82C165.724 334.206 132.439 330.928 102.191 318.402C71.9423 305.876 46.0884 284.663 27.8986 257.447C9.70878 230.231 0 198.233 0 165.5C0 121.607 17.4408 79.5111 48.4857 48.4738C79.5306 17.4366 121.636 0 165.541 0Z" fill="#0E3EA2"/>
</g>
<defs>
<clipPath id="clip0_104_8">
<rect width="331" height="331" fill="white"/>
</clipPath>
</defs>
</svg>
