<svg xmlns="http://www.w3.org/2000/svg" viewBox="0 0 169.46 35"><defs><style>.cls-1,.cls-3{fill:#0e3ea2;}.cls-1,.cls-2{fill-rule:evenodd;}.cls-2,.cls-4{fill:#7d7d7d;}</style></defs><title>Bakai Bank Light Logo</title><g id="Слой_2" data-name="Слой 2"><g id="Слой_1-2" data-name="Слой 1"><path class="cls-1" d="M14.28,10.52H11.2V17h3.08a3.35,3.35,0,0,0,3.44-3.26A3.35,3.35,0,0,0,14.28,10.52Z"/><path class="cls-2" d="M21.55,17.78H18.47V24.3h3.08a3.27,3.27,0,1,0,0-6.52Z"/><path class="cls-2" d="M21.55,10.52H18.48V17h3.08A3.35,3.35,0,0,0,25,13.78,3.35,3.35,0,0,0,21.55,10.52Z"/><path class="cls-1" d="M14.28,17.78H11.2V24.3h3.08a3.27,3.27,0,1,0,0-6.52Z"/><path class="cls-3" d="M17.5,5.2A12.3,12.3,0,1,0,29.81,17.5,12.31,12.31,0,0,0,17.5,5.2Zm0-5.2A17.5,17.5,0,1,1,0,17.5,17.5,17.5,0,0,1,17.5,0Z"/><path class="cls-4" d="M139,8.84h2L151.4,23.59V8.84h2V27.15h-2l-10.33-15v15h-2ZM122.62,27.15l6.94-18.36H131l7,18.36h-2.22L134,22.23h-7.36l-1.81,4.92Zm4.63-6.63h6l-3-8.56Zm-13.57-3.59h2a4.15,4.15,0,0,0,2.79-.85,3,3,0,0,0,1-2.37,3,3,0,0,0-.85-2.26,4,4,0,0,0-2.81-.88h-2.08Zm0,8.5h2.72a4.88,4.88,0,0,0,3-.79A3.09,3.09,0,0,0,120.52,22a3.13,3.13,0,0,0-1.06-2.45,4.22,4.22,0,0,0-2.81-.91h-3Zm-2.05,1.72V8.84h4.25a6.1,6.1,0,0,1,4.27,1.38,4.32,4.32,0,0,1,1.35,3.26,4.65,4.65,0,0,1-.65,2.45,3.8,3.8,0,0,1-1.77,1.53A4.9,4.9,0,0,1,121.63,19a4.53,4.53,0,0,1,1,2.92A4.79,4.79,0,0,1,121,25.71a6.9,6.9,0,0,1-4.63,1.44Zm44.39,0V8.85h2.05v8.39l8.15-8.39H169l-8.81,9.05,9.31,9.25h-2.88l-8.51-8.36v8.36Z"/><path class="cls-3" d="M60.27,19.46h3.8l-1.89-5.26Zm5,3.46H59l-1.54,4.24H53.12L60.31,8.78h3.5L71.4,27.17H66.85Zm38.07,4.22V8.84h4.25v18.3Zm-58.55-11h1.28a2.36,2.36,0,0,0,1.66-.57,1.8,1.8,0,0,0,.56-1.33,1.87,1.87,0,0,0-.57-1.4A2.5,2.5,0,0,0,46,12.23H44.84Zm0,7.5h1.75a3.71,3.71,0,0,0,2.22-.53,1.88,1.88,0,0,0,.7-1.63,1.67,1.67,0,0,0-.67-1.41,3.09,3.09,0,0,0-1.86-.5H44.84Zm-4.25,3.44V8.77h6.14A7.16,7.16,0,0,1,50,9.46a4.54,4.54,0,0,1,1.89,1.72,4.38,4.38,0,0,1,.09,4.3,4,4,0,0,1-1.56,1.6,4.9,4.9,0,0,1,2.51,1.73,4.55,4.55,0,0,1,.85,2.7A5.23,5.23,0,0,1,53,24.14a5.59,5.59,0,0,1-2.18,2.08,7.57,7.57,0,0,1-3.65.85Zm51.09-7.6h3.8l-1.89-5.26Zm5,3.46h-6.3l-1.54,4.24H84.53l-1.64,0a16.28,16.28,0,0,0-2.43-4.3,8.87,8.87,0,0,0-4.38-3.11v7.41H71.84V8.75h4.25v6.91c1.17-.33,4.36-1.69,6.6-6.91h4.18a22.3,22.3,0,0,1-1.29,3.13,14.42,14.42,0,0,1-5.07,5.81,15.9,15.9,0,0,1,3.28,3,15.87,15.87,0,0,1,2,3.28L91.72,8.78h3.5l7.58,18.39H98.25Z"/></g></g></svg>