<svg width="12" height="15" viewBox="0 0 12 15" fill="none" xmlns="http://www.w3.org/2000/svg">
  <mask id="path-1-inside-1_7_1488" fill="white">
    <path d="M0 15V0L12 7L0 15Z"/>
  </mask>
  <path d="M0 0L15.1161 -25.9134L-30 -52.2311V0H0ZM0 15H-30V71.0555L16.641 39.9615L0 15ZM12 7L28.641 31.9615L68.6293 5.30265L27.1161 -18.9134L12 7ZM-30 0V15H30V0H-30ZM16.641 39.9615L28.641 31.9615L-4.64101 -17.9615L-16.641 -9.96151L16.641 39.9615ZM27.1161 -18.9134L15.1161 -25.9134L-15.1161 25.9134L-3.11613 32.9134L27.1161 -18.9134Z" fill="currentColor" mask="url(#path-1-inside-1_7_1488)"/>
</svg>
