<svg width="12" height="15" viewBox="0 0 12 15" fill="none" xmlns="http://www.w3.org/2000/svg">
  <mask id="path-1-inside-1_7_1489" fill="white">
    <path d="M12 0L12 15L0 8L12 0Z"/>
  </mask>
  <path d="M12 15L-3.11613 40.9134L42 67.2311L42 15L12 15ZM12 0L42 0L42 -56.0555L-4.64101 -24.9615L12 0ZM0 8L-16.641 -16.9615L-56.6293 9.69735L-15.1161 33.9134L0 8ZM42 15V0L-18 0L-18 15L42 15ZM-4.64101 -24.9615L-16.641 -16.9615L16.641 32.9615L28.641 24.9615L-4.64101 -24.9615ZM-15.1161 33.9134L-3.11613 40.9134L27.1161 -10.9134L15.1161 -17.9134L-15.1161 33.9134Z" fill="currentColor" mask="url(#path-1-inside-1_7_1489)"/>
</svg>
